<svg width="576" height="512" viewBox="0 0 576 512" fill="none" xmlns="http://www.w3.org/2000/svg">
<path d="M183.6 42.4C177.5 35.8 169 32 160 32C151 32 142.5 35.8 136.4 42.4L48.4 138.4C36.5 151.4 37.3 171.7 50.4 183.6C63.5 195.5 83.7 194.7 95.6 181.6L128 146.3V448C128 465.7 142.3 480 160 480C177.7 480 192 465.7 192 448V146.3L224.4 181.7C236.3 194.7 256.6 195.6 269.6 183.7C282.6 171.8 283.5 151.5 271.6 138.5L183.6 42.5V42.4ZM320 64C320 81.7 334.3 96 352 96H402.7L329.3 169.4C320.1 178.6 317.4 192.3 322.4 204.3C327.4 216.3 339 224.1 352 224.1H480C497.7 224.1 512 209.8 512 192.1C512 174.4 497.7 160.1 480 160.1H429.3L502.7 86.7C511.9 77.5 514.6 63.8 509.6 51.8C504.6 39.8 493 32 480 32H352C334.3 32 320 46.3 320 64ZM416 256C403.9 256 392.8 262.8 387.4 273.7L323.4 401.7L307.4 433.7C299.5 449.5 305.9 468.7 321.7 476.6C337.5 484.5 356.7 478.1 364.6 462.3L371.8 448H460.2L467.4 462.3C475.3 478.1 494.5 484.5 510.3 476.6C526.1 468.7 532.5 449.5 524.6 433.7L508.6 401.7L444.6 273.7C439.2 262.8 428.1 256 416 256ZM395.8 400L416 359.6L436.2 400H395.8Z" fill="white"/>
</svg>
